<?xml version="1.0" encoding="utf-8" ?>
<svg baseProfile="full" height="640" version="1.1" viewBox="0,0,1200,640" width="1200" xmlns="http://www.w3.org/2000/svg" xmlns:ev="http://www.w3.org/2001/xml-events" xmlns:xlink="http://www.w3.org/1999/xlink"><defs><marker id="id1" markerHeight="10" markerUnits="strokeWidth" markerWidth="10" orient="auto" refX="10" refY="5"><path d="M0,0 L10,5 L0,10 z" fill="#334155" /></marker><marker id="id2" markerHeight="10" markerUnits="strokeWidth" markerWidth="10" orient="auto" refX="10" refY="5"><path d="M0,0 L10,5 L0,10 z" fill="#334155" /></marker><marker id="id3" markerHeight="10" markerUnits="strokeWidth" markerWidth="10" orient="auto" refX="10" refY="5"><path d="M0,0 L10,5 L0,10 z" fill="#334155" /></marker><marker id="id4" markerHeight="10" markerUnits="strokeWidth" markerWidth="10" orient="auto" refX="10" refY="5"><path d="M0,0 L10,5 L0,10 z" fill="#334155" /></marker><marker id="id5" markerHeight="10" markerUnits="strokeWidth" markerWidth="10" orient="auto" refX="10" refY="5"><path d="M0,0 L10,5 L0,10 z" fill="#334155" /></marker><marker id="id6" markerHeight="10" markerUnits="strokeWidth" markerWidth="10" orient="auto" refX="10" refY="5"><path d="M0,0 L10,5 L0,10 z" fill="#334155" /></marker><marker id="id7" markerHeight="10" markerUnits="strokeWidth" markerWidth="10" orient="auto" refX="10" refY="5"><path d="M0,0 L10,5 L0,10 z" fill="#334155" /></marker><marker id="id8" markerHeight="10" markerUnits="strokeWidth" markerWidth="10" orient="auto" refX="10" refY="5"><path d="M0,0 L10,5 L0,10 z" fill="#334155" /></marker><marker id="id9" markerHeight="10" markerUnits="strokeWidth" markerWidth="10" orient="auto" refX="10" refY="5"><path d="M0,0 L10,5 L0,10 z" fill="#334155" /></marker><marker id="id10" markerHeight="10" markerUnits="strokeWidth" markerWidth="10" orient="auto" refX="10" refY="5"><path d="M0,0 L10,5 L0,10 z" fill="#64748b" /></marker></defs><rect fill="#ffffff" height="640" width="1200" x="0" y="0" /><rect fill="#dbeafe" height="80" rx="14" ry="14" stroke="#2563eb" stroke-width="2.2" width="170" x="60" y="80" /><text fill="#1f2937" font-family="Arial, Helvetica, sans-serif" font-size="19" font-weight="bold" text-anchor="middle" x="145.0" y="110">1. CSM +</text><text fill="#1f2937" font-family="Arial, Helvetica, sans-serif" font-size="19" font-weight="bold" text-anchor="middle" x="145.0" y="134">analyte inventory</text><rect fill="#dbeafe" height="80" rx="14" ry="14" stroke="#2563eb" stroke-width="2.2" width="170" x="285" y="80" /><text fill="#1f2937" font-family="Arial, Helvetica, sans-serif" font-size="19" font-weight="bold" text-anchor="middle" x="370.0" y="110">2. Control-plane</text><text fill="#1f2937" font-family="Arial, Helvetica, sans-serif" font-size="19" font-weight="bold" text-anchor="middle" x="370.0" y="134">design</text><rect fill="#dbeafe" height="80" rx="14" ry="14" stroke="#2563eb" stroke-width="2.2" width="170" x="510" y="80" /><text fill="#1f2937" font-family="Arial, Helvetica, sans-serif" font-size="19" font-weight="bold" text-anchor="middle" x="595.0" y="110">3. Flux cells</text><text fill="#1f2937" font-family="Arial, Helvetica, sans-serif" font-size="19" font-weight="bold" text-anchor="middle" x="595.0" y="134">K, I, A, C</text><rect fill="#dcfce7" height="80" rx="14" ry="14" stroke="#16a34a" stroke-width="2.2" width="170" x="735" y="80" /><text fill="#1f2937" font-family="Arial, Helvetica, sans-serif" font-size="19" font-weight="bold" text-anchor="middle" x="820.0" y="110">4. Compound</text><text fill="#1f2937" font-family="Arial, Helvetica, sans-serif" font-size="19" font-weight="bold" text-anchor="middle" x="820.0" y="134">M_d,k</text><rect fill="#dcfce7" height="80" rx="14" ry="14" stroke="#16a34a" stroke-width="2.2" width="170" x="960" y="80" /><text fill="#1f2937" font-family="Arial, Helvetica, sans-serif" font-size="19" font-weight="bold" text-anchor="middle" x="1045.0" y="110">5. Group /</text><text fill="#1f2937" font-family="Arial, Helvetica, sans-serif" font-size="19" font-weight="bold" text-anchor="middle" x="1045.0" y="134">scenario M*_d,G</text><rect fill="#ffedd5" height="80" rx="14" ry="14" stroke="#f97316" stroke-width="2.2" width="170" x="285" y="285" /><text fill="#1f2937" font-family="Arial, Helvetica, sans-serif" font-size="19" font-weight="bold" text-anchor="middle" x="370.0" y="315">6. Receptor</text><text fill="#1f2937" font-family="Arial, Helvetica, sans-serif" font-size="19" font-weight="bold" text-anchor="middle" x="370.0" y="339">allowable load</text><rect fill="#ffedd5" height="80" rx="14" ry="14" stroke="#f97316" stroke-width="2.2" width="170" x="510" y="285" /><text fill="#1f2937" font-family="Arial, Helvetica, sans-serif" font-size="19" font-weight="bold" text-anchor="middle" x="595.0" y="315">7. Monte Carlo</text><text fill="#1f2937" font-family="Arial, Helvetica, sans-serif" font-size="19" font-weight="bold" text-anchor="middle" x="595.0" y="339">uncertainty</text><rect fill="#f3e8ff" height="80" rx="14" ry="14" stroke="#9333ea" stroke-width="2.2" width="170" x="735" y="285" /><text fill="#1f2937" font-family="Arial, Helvetica, sans-serif" font-size="19" font-weight="bold" text-anchor="middle" x="820.0" y="315">8. Data-priority</text><text fill="#1f2937" font-family="Arial, Helvetica, sans-serif" font-size="19" font-weight="bold" text-anchor="middle" x="820.0" y="339">metrics</text><rect fill="#f3e8ff" height="80" rx="14" ry="14" stroke="#9333ea" stroke-width="2.2" width="170" x="960" y="285" /><text fill="#1f2937" font-family="Arial, Helvetica, sans-serif" font-size="19" font-weight="bold" text-anchor="middle" x="1045.0" y="315">9. Decision</text><text fill="#1f2937" font-family="Arial, Helvetica, sans-serif" font-size="19" font-weight="bold" text-anchor="middle" x="1045.0" y="339">reporting</text><line marker-end="url(#id1)" stroke="#334155" stroke-width="2.5" x1="230" x2="285" y1="120" y2="120" /><line marker-end="url(#id2)" stroke="#334155" stroke-width="2.5" x1="455" x2="510" y1="120" y2="120" /><line marker-end="url(#id3)" stroke="#334155" stroke-width="2.5" x1="680" x2="735" y1="120" y2="120" /><line marker-end="url(#id4)" stroke="#334155" stroke-width="2.5" x1="905" x2="960" y1="120" y2="120" /><line marker-end="url(#id5)" stroke="#334155" stroke-width="2.5" x1="1045" x2="1045" y1="160" y2="285" /><line marker-end="url(#id6)" stroke="#334155" stroke-width="2.5" x1="370" x2="370" y1="160" y2="285" /><line marker-end="url(#id7)" stroke="#334155" stroke-width="2.5" x1="455" x2="510" y1="325" y2="325" /><line marker-end="url(#id8)" stroke="#334155" stroke-width="2.5" x1="680" x2="735" y1="325" y2="325" /><line marker-end="url(#id9)" stroke="#334155" stroke-width="2.5" x1="905" x2="960" y1="325" y2="325" /><path d="M 820 365 C 710 470, 230 470, 145 165" fill="none" marker-end="url(#id10)" stroke="#64748b" stroke-dasharray="8,7" stroke-width="2.0" /><text fill="#475569" font-family="Arial, Helvetica, sans-serif" font-size="18" text-anchor="middle" x="430" y="465">update monitoring design</text><rect fill="#fff7ed" height="78" rx="12" ry="12" stroke="#fb923c" stroke-width="2" width="1060" x="70" y="510" /><text fill="#9a3412" font-family="Arial, Helvetica, sans-serif" font-size="20" font-weight="bold" text-anchor="middle" x="600.0" y="537">PFAS-specific reporting layer</text><text fill="#9a3412" font-family="Arial, Helvetica, sans-serif" font-size="18" text-anchor="middle" x="600.0" y="566">target-suite scope  +  precursor/TOP status  +  scenario completeness  +  receptor load  +  probability and data priority</text></svg>