<?xml version="1.0" encoding="utf-8" ?>
<svg baseProfile="full" height="760" version="1.1" viewBox="0,0,1200,760" width="1200" xmlns="http://www.w3.org/2000/svg" xmlns:ev="http://www.w3.org/2001/xml-events" xmlns:xlink="http://www.w3.org/1999/xlink"><defs><marker id="id1" markerHeight="10" markerUnits="strokeWidth" markerWidth="10" orient="auto" refX="10" refY="5"><path d="M0,0 L10,5 L0,10 z" fill="#475569" /></marker></defs><rect fill="white" height="760" width="1200" x="0" y="0" /><rect fill="#fbf7ed" height="540" stroke="#334155" stroke-width="1.5" width="1020" x="90" y="70" /><rect fill="#fef3c7" height="182.76923076923077" opacity="0.68" stroke="none" width="1020" x="90.0" y="427.2307692307692" /><rect fill="#e0f2fe" height="199.38461538461542" opacity="0.68" stroke="none" width="1020" x="90.0" y="227.8461538461538" /><rect fill="#f1f5f9" height="157.8461538461538" opacity="0.68" stroke="none" width="1020" x="90.0" y="70.0" /><path d="M 90.0 510.3076923076923 C 302.5 481.2307692307692, 600.0 510.3076923076923, 787.0 468.7692307692308 S 1025.0 485.38461538461536, 1110.0 435.53846153846155" fill="none" opacity="0.6" stroke="#0ea5e9" stroke-width="15" /><text fill="#0369a1" font-family="Arial, Helvetica, sans-serif" font-size="18" font-weight="bold" x="719.0" y="439.69230769230774">receiving-water / drainage pathway</text><line marker-end="url(#id1)" stroke="#475569" stroke-width="3" x1="285.5" x2="451.25" y1="315.0769230769231" y2="283.50769230769225" /><line marker-end="url(#id1)" stroke="#475569" stroke-width="3" x1="396.0" x2="595.75" y1="373.2307692307692" y2="315.0769230769231" /><line marker-end="url(#id1)" stroke="#475569" stroke-width="3" x1="498.0" x2="710.5" y1="294.30769230769226" y2="227.8461538461538" /><line marker-end="url(#id1)" stroke="#475569" stroke-width="3" x1="617.0" x2="816.75" y1="335.84615384615387" y2="273.53846153846155" /><text fill="#334155" font-family="Arial, Helvetica, sans-serif" font-size="18" x="532.0" y="398.1538461538462">groundwater-flow direction</text><rect fill="#f97316" height="49.84615384615385" opacity="0.88" rx="8" ry="8" stroke="#9a3412" stroke-width="2" width="76.5" x="243.0" y="202.9230769230769" /><text fill="white" font-family="Arial, Helvetica, sans-serif" font-size="19" font-weight="bold" text-anchor="middle" x="281.25" y="234.84615384615384">S1</text><rect fill="#f97316" height="58.15384615384616" opacity="0.88" rx="8" ry="8" stroke="#9a3412" stroke-width="2" width="93.5" x="302.5" y="261.07692307692304" /><text fill="white" font-family="Arial, Helvetica, sans-serif" font-size="19" font-weight="bold" text-anchor="middle" x="349.25" y="297.15384615384613">S2</text><rect fill="#f97316" height="49.84615384615385" opacity="0.88" rx="8" ry="8" stroke="#9a3412" stroke-width="2" width="97.75" x="370.5" y="157.23076923076923" /><text fill="white" font-family="Arial, Helvetica, sans-serif" font-size="19" font-weight="bold" text-anchor="middle" x="419.375" y="189.15384615384616">S3</text><text fill="#9a3412" font-family="Arial, Helvetica, sans-serif" font-size="18" font-weight="bold" x="217.5" y="132.30769230769232">AFFF-relevant source areas</text><line stroke="#7c3aed" stroke-dasharray="10,8" stroke-width="4" x1="345.0" x2="345.0" y1="543.5384615384615" y2="111.53846153846149" /><rect fill="white" height="32" rx="6" ry="6" stroke="#7c3aed" stroke-width="1.5" width="70" x="310.0" y="76.9230769230769" /><text fill="#5b21b6" font-family="Arial, Helvetica, sans-serif" font-size="17" font-weight="bold" text-anchor="middle" x="345.0" y="99.9230769230769">CP1</text><text fill="#5b21b6" font-family="Arial, Helvetica, sans-serif" font-size="14" x="353.0" y="556.0">source plane</text><line stroke="#7c3aed" stroke-dasharray="10,8" stroke-width="4" x1="642.5" x2="642.5" y1="543.5384615384615" y2="111.53846153846149" /><rect fill="white" height="32" rx="6" ry="6" stroke="#7c3aed" stroke-width="1.5" width="70" x="607.5" y="76.9230769230769" /><text fill="#5b21b6" font-family="Arial, Helvetica, sans-serif" font-size="17" font-weight="bold" text-anchor="middle" x="642.5" y="99.9230769230769">CP2</text><text fill="#5b21b6" font-family="Arial, Helvetica, sans-serif" font-size="14" x="650.5" y="556.0">mid-plume plane</text><line stroke="#7c3aed" stroke-dasharray="10,8" stroke-width="4" x1="897.5" x2="897.5" y1="543.5384615384615" y2="111.53846153846149" /><rect fill="white" height="32" rx="6" ry="6" stroke="#7c3aed" stroke-width="1.5" width="70" x="862.5" y="76.9230769230769" /><text fill="#5b21b6" font-family="Arial, Helvetica, sans-serif" font-size="17" font-weight="bold" text-anchor="middle" x="897.5" y="99.9230769230769">CP3</text><text fill="#5b21b6" font-family="Arial, Helvetica, sans-serif" font-size="14" x="905.5" y="556.0">receptor plane</text><circle cx="226.0" cy="178.0" fill="#1d4ed8" r="9" stroke="white" stroke-width="1.5" /><circle cx="323.75" cy="232.0" fill="#1d4ed8" r="9" stroke="white" stroke-width="1.5" /><circle cx="455.5" cy="277.6923076923077" fill="#1d4ed8" r="9" stroke="white" stroke-width="1.5" /><circle cx="651.0" cy="323.38461538461536" fill="#1d4ed8" r="9" stroke="white" stroke-width="1.5" /><circle cx="914.5" cy="252.76923076923077" fill="#65a30d" r="14" stroke="#3f6212" stroke-width="2" /><circle cx="965.5" cy="219.53846153846155" fill="#65a30d" r="14" stroke="#3f6212" stroke-width="2" /><circle cx="1003.75" cy="277.6923076923077" fill="#65a30d" r="14" stroke="#3f6212" stroke-width="2" /><circle cx="940.0" cy="310.9230769230769" fill="#65a30d" r="14" stroke="#3f6212" stroke-width="2" /><circle cx="1012.25" cy="344.15384615384613" fill="#65a30d" r="14" stroke="#3f6212" stroke-width="2" /><circle cx="880.5" cy="356.61538461538464" fill="#15803d" r="10" stroke="white" stroke-width="1.5" /><text fill="#15803d" font-family="Arial, Helvetica, sans-serif" font-size="14" font-weight="bold" x="894.5" y="348.61538461538464">RW-1</text><text fill="#3f6212" font-family="Arial, Helvetica, sans-serif" font-size="18" font-weight="bold" x="855.0" y="190.46153846153845">water-use and discharge receptors</text><line stroke="#475569" x1="90.0" x2="90.0" y1="610" y2="618" /><text fill="#475569" font-family="Arial, Helvetica, sans-serif" font-size="14" text-anchor="middle" x="90.0" y="638">0</text><line stroke="#475569" x1="345.0" x2="345.0" y1="610" y2="618" /><text fill="#475569" font-family="Arial, Helvetica, sans-serif" font-size="14" text-anchor="middle" x="345.0" y="638">300</text><line stroke="#475569" x1="600.0" x2="600.0" y1="610" y2="618" /><text fill="#475569" font-family="Arial, Helvetica, sans-serif" font-size="14" text-anchor="middle" x="600.0" y="638">600</text><line stroke="#475569" x1="855.0" x2="855.0" y1="610" y2="618" /><text fill="#475569" font-family="Arial, Helvetica, sans-serif" font-size="14" text-anchor="middle" x="855.0" y="638">900</text><line stroke="#475569" x1="1110.0" x2="1110.0" y1="610" y2="618" /><text fill="#475569" font-family="Arial, Helvetica, sans-serif" font-size="14" text-anchor="middle" x="1110.0" y="638">1200</text><line stroke="#475569" x1="82" x2="90" y1="610.0" y2="610.0" /><text fill="#475569" font-family="Arial, Helvetica, sans-serif" font-size="14" text-anchor="end" x="75" y="615.0">0</text><line stroke="#475569" x1="82" x2="90" y1="485.38461538461536" y2="485.38461538461536" /><text fill="#475569" font-family="Arial, Helvetica, sans-serif" font-size="14" text-anchor="end" x="75" y="490.38461538461536">150</text><line stroke="#475569" x1="82" x2="90" y1="360.7692307692307" y2="360.7692307692307" /><text fill="#475569" font-family="Arial, Helvetica, sans-serif" font-size="14" text-anchor="end" x="75" y="365.7692307692307">300</text><line stroke="#475569" x1="82" x2="90" y1="236.1538461538462" y2="236.1538461538462" /><text fill="#475569" font-family="Arial, Helvetica, sans-serif" font-size="14" text-anchor="end" x="75" y="241.1538461538462">450</text><line stroke="#475569" x1="82" x2="90" y1="111.53846153846149" y2="111.53846153846149" /><text fill="#475569" font-family="Arial, Helvetica, sans-serif" font-size="14" text-anchor="end" x="75" y="116.53846153846149">600</text><text fill="#334155" font-family="Arial, Helvetica, sans-serif" font-size="16" text-anchor="middle" x="600.0" y="668">local x coordinate (m)</text><text fill="#334155" font-family="Arial, Helvetica, sans-serif" font-size="16" text-anchor="middle" transform="rotate(-90,30,340.0)" x="30" y="340.0">local y coordinate (m)</text><line stroke="#111827" stroke-width="4" x1="158.0" x2="328.0" y1="572.6153846153846" y2="572.6153846153846" /><text fill="#111827" font-family="Arial, Helvetica, sans-serif" font-size="16" text-anchor="middle" x="243.0" y="562.6153846153846">200 m</text><rect fill="#f97316" height="18" rx="4" stroke="#334155" width="26" x="185" y="676" /><text fill="#334155" font-family="Arial, Helvetica, sans-serif" font-size="14" x="223" y="690">source area</text><line stroke="#7c3aed" stroke-dasharray="6,4" stroke-width="3" x1="430" x2="458" y1="684" y2="684" /><text fill="#334155" font-family="Arial, Helvetica, sans-serif" font-size="14" x="468" y="690">control plane</text><circle cx="688" cy="684" fill="#1d4ed8" r="9" stroke="white" /><text fill="#334155" font-family="Arial, Helvetica, sans-serif" font-size="14" x="713" y="690">monitoring / receptor point</text><line opacity="0.65" stroke="#0ea5e9" stroke-width="6" x1="920" x2="948" y1="684" y2="684" /><text fill="#334155" font-family="Arial, Helvetica, sans-serif" font-size="14" x="958" y="690">drainage pathway</text></svg>